<?xml version="1.0" encoding="UTF-8" standalone="no"?>
<!-- Created with Inkscape (http://www.inkscape.org/) -->
<svg
   xmlns:dc="http://purl.org/dc/elements/1.1/"
   xmlns:cc="http://web.resource.org/cc/"
   xmlns:rdf="http://www.w3.org/1999/02/22-rdf-syntax-ns#"
   xmlns:svg="http://www.w3.org/2000/svg"
   xmlns="http://www.w3.org/2000/svg"
   xmlns:xlink="http://www.w3.org/1999/xlink"
   xmlns:sodipodi="http://inkscape.sourceforge.net/DTD/sodipodi-0.dtd"
   xmlns:inkscape="http://www.inkscape.org/namespaces/inkscape"
   width="8.5in"
   height="11in"
   id="svg1342"
   sodipodi:version="0.32"
   inkscape:version="0.43"
   version="1.0"
   sodipodi:docbase="/home/cjb"
   sodipodi:docname="poster.svg"
   inkscape:export-filename="/home/duffy/Desktop/wsop/poster7.png"
   inkscape:export-xdpi="92.549965"
   inkscape:export-ydpi="92.549965">
  <defs
     id="defs1344" />
  <sodipodi:namedview
     id="base"
     pagecolor="#ffffff"
     bordercolor="#666666"
     borderopacity="1.0"
     inkscape:pageopacity="0.0"
     inkscape:pageshadow="2"
     inkscape:zoom="0.62863114"
     inkscape:cx="385"
     inkscape:cy="493.40625"
     inkscape:document-units="in"
     inkscape:current-layer="layer1"
     gridspacingy="0.011111111in"
     gridspacingx="0.011111111in"
     gridoriginy="0in"
     gridoriginx="0in"
     showgrid="false"
     inkscape:grid-bbox="true"
     showguides="true"
     inkscape:guide-bbox="true"
     gridtolerance="0.25in"
     gridempspacing="3"
     inkscape:window-width="1028"
     inkscape:window-height="726"
     inkscape:window-x="1171"
     inkscape:window-y="512">
    <sodipodi:guide
       orientation="vertical"
       position="48.487322"
       id="guide1369" />
    <sodipodi:guide
       orientation="vertical"
       position="719.22861"
       id="guide1371" />
    <sodipodi:guide
       orientation="horizontal"
       position="944"
       id="guide1373" />
    <sodipodi:guide
       orientation="horizontal"
       position="48.487322"
       id="guide1375" />
  </sodipodi:namedview>
  <metadata
     id="metadata1347">
    <rdf:RDF>
      <cc:Work
         rdf:about="">
        <dc:format>image/svg+xml</dc:format>
        <dc:type
           rdf:resource="http://purl.org/dc/dcmitype/StillImage" />
      </cc:Work>
    </rdf:RDF>
  </metadata>
  <g
     inkscape:label="Layer 1"
     inkscape:groupmode="layer"
     id="layer1">
    <path
       style="opacity:1;color:#000000;fill:#000000;fill-opacity:1;fill-rule:evenodd;stroke:none;stroke-width:4.5;stroke-linecap:round;stroke-linejoin:miter;marker:none;marker-start:none;marker-mid:none;marker-end:none;stroke-miterlimit:4;stroke-dasharray:none;stroke-dashoffset:0;stroke-opacity:1;visibility:visible;display:inline;overflow:visible"
       d="M 48.487322,46 L 48.487322,116.625 C 87.852823,174.66129 96.776051,290.94081 57.737322,308.125 C 54.820517,309.40837 51.731222,310.21373 48.487322,310.59375 L 48.487322,471.09375 C 157.52449,247.11959 536.26973,167.71983 722.48732,237.09375 L 722.48732,155.71875 C 672.75896,151.65876 645.91734,105.49877 642.64357,46 L 508.51857,46 C 489.28784,82.690263 464.72745,108.21118 440.79982,106.75 C 416.22134,105.24969 394.08321,80.587669 379.08107,46 L 274.39357,46 C 274.8597,107.02675 256.64265,167.75337 225.23732,174.15625 C 184.56327,182.46853 131.86285,114.85058 118.45607,46 L 48.487322,46 z M 722.48732,538.03125 C 553.57835,675.12097 259.36968,765.19149 443.20607,905.15625 C 524.39239,966.97037 607.29294,919.60437 594.73732,823.71875 C 589.65086,784.89319 655.73412,753.51976 722.48732,745.3125 L 722.48732,538.03125 z M 48.487322,741.84375 L 48.487322,943.1875 L 183.98732,943.1875 C 124.48122,884.26744 76.951874,813.98697 48.487322,741.84375 z "
       id="rect5764" />
    <text
       xml:space="preserve"
       style="font-size:21.39915085px;font-style:normal;font-variant:normal;font-weight:bold;font-stretch:normal;text-align:start;line-height:125%;writing-mode:lr-tb;text-anchor:start;fill:#000000;fill-opacity:1;stroke:none;stroke-width:1pt;stroke-linecap:butt;stroke-linejoin:miter;stroke-opacity:1;font-family:Bitstream Vera Sans"
       x="83.437584"
       y="746.61115"
       id="text5364"
       sodipodi:linespacing="125%"><tspan
         sodipodi:role="line"
         x="83.437584"
         y="746.61115"
         id="tspan5366">USD $3,000 stipend</tspan></text>
    <g
       id="g5766"
       transform="matrix(0.997528,0,0,0.997528,153.08,183.7437)">
      <text
         xml:space="preserve"
         style="font-size:37.8684082px;font-style:normal;font-variant:normal;font-weight:bold;font-stretch:normal;text-align:start;line-height:125%;writing-mode:lr-tb;text-anchor:start;fill:#000000;fill-opacity:1;stroke:none;stroke-width:1pt;stroke-linecap:butt;stroke-linejoin:miter;stroke-opacity:1;font-family:Bitstream Vera Sans"
         x="285.36536"
         y="286.21948"
         id="text5398"
         sodipodi:linespacing="125%"><tspan
           sodipodi:role="line"
           x="285.36536"
           y="286.21948"
           id="tspan5400">code:::</tspan></text>
      <text
         sodipodi:linespacing="125%"
         id="text5402"
         y="246.21948"
         x="285.36536"
         style="font-size:37.8684082px;font-style:normal;font-variant:normal;font-weight:bold;font-stretch:normal;text-align:start;line-height:125%;writing-mode:lr-tb;text-anchor:start;fill:#000000;fill-opacity:1;stroke:none;stroke-width:1pt;stroke-linecap:butt;stroke-linejoin:miter;stroke-opacity:1;font-family:Bitstream Vera Sans"
         xml:space="preserve"><tspan
           id="tspan5404"
           y="246.21948"
           x="285.36536"
           sodipodi:role="line">develop::</tspan></text>
      <text
         xml:space="preserve"
         style="font-size:37.8684082px;font-style:normal;font-variant:normal;font-weight:bold;font-stretch:normal;text-align:start;line-height:125%;writing-mode:lr-tb;text-anchor:start;fill:#000000;fill-opacity:1;stroke:none;stroke-width:1pt;stroke-linecap:butt;stroke-linejoin:miter;stroke-opacity:1;font-family:Bitstream Vera Sans"
         x="285.36536"
         y="206.21948"
         id="text5406"
         sodipodi:linespacing="125%"><tspan
           sodipodi:role="line"
           x="285.36536"
           y="206.21948"
           id="tspan5408">collaborate:</tspan></text>
    </g>
    <rect
       y="367.40106"
       x="418.82892"
       height="241.17447"
       width="1.867372"
       id="rect5410"
       style="color:#000000;fill:#000000;fill-opacity:1;fill-rule:evenodd;stroke:none;stroke-width:4.5;stroke-linecap:round;stroke-linejoin:miter;marker:none;marker-start:none;marker-mid:none;marker-end:none;stroke-miterlimit:4;stroke-dasharray:none;stroke-dashoffset:0;stroke-opacity:1;visibility:visible;display:inline;overflow:visible" />
    <text
       xml:space="preserve"
       style="font-size:65.25070953px;font-style:normal;font-variant:normal;font-weight:bold;font-stretch:normal;text-align:end;line-height:125%;writing-mode:lr-tb;text-anchor:end;fill:#000000;fill-opacity:1;stroke:none;stroke-width:1pt;stroke-linecap:butt;stroke-linejoin:miter;stroke-opacity:1;font-family:Bitstream Vera Sans"
       x="722.43634"
       y="328.40079"
       id="text5412"
       sodipodi:linespacing="125%"><tspan
         sodipodi:role="line"
         x="722.43635"
         y="328.40079"
         id="tspan2286">women!</tspan><tspan
         sodipodi:role="line"
         x="722.43634"
         y="409.96417"
         id="tspan2290" /></text>
    <text
       xml:space="preserve"
       style="font-size:20.17737579px;font-style:normal;font-variant:normal;font-weight:normal;font-stretch:normal;text-align:start;line-height:125%;writing-mode:lr-tb;text-anchor:start;fill:#000000;fill-opacity:1;stroke:none;stroke-width:1pt;stroke-linecap:butt;stroke-linejoin:miter;stroke-opacity:1;font-family:Bitstream Vera Sans"
       x="440.53384"
       y="520.69952"
       id="text5420"
       sodipodi:linespacing="125%"><tspan
         sodipodi:role="line"
         x="440.53384"
         y="520.69952"
         id="tspan5422">sound like</tspan><tspan
         sodipodi:role="line"
         x="440.53384"
         y="545.92124"
         id="tspan5424">a fun way to</tspan><tspan
         sodipodi:role="line"
         x="440.53384"
         y="571.14296"
         id="tspan5426">spend your </tspan><tspan
         sodipodi:role="line"
         x="440.53384"
         y="596.36468"
         id="tspan5428">summer?</tspan></text>
    <text
       xml:space="preserve"
       style="font-size:24.07123756px;font-style:normal;font-variant:normal;font-weight:bold;font-stretch:normal;text-align:start;line-height:125%;writing-mode:lr-tb;text-anchor:start;fill:#000000;fill-opacity:1;stroke:none;stroke-width:1pt;stroke-linecap:butt;stroke-linejoin:miter;stroke-opacity:1;font-family:Bitstream Vera Sans"
       x="81.693802"
       y="604.42462"
       id="text5430"
       sodipodi:linespacing="125%"><tspan
         sodipodi:role="line"
         id="tspan5432"
         x="81.693802"
         y="604.42462">http://www.gnome.org/</tspan></text>
    <text
       sodipodi:linespacing="125%"
       id="text5436"
       y="516.78656"
       x="398.81827"
       style="font-size:40.99919891px;font-style:normal;font-variant:normal;font-weight:bold;font-stretch:normal;text-align:end;line-height:125%;writing-mode:lr-tb;text-anchor:end;fill:#000000;fill-opacity:1;stroke:none;stroke-width:1pt;stroke-linecap:butt;stroke-linejoin:miter;stroke-opacity:1;font-family:Bitstream Vera Sans"
       xml:space="preserve"><tspan
         y="516.78656"
         x="398.81825"
         sodipodi:role="line"
         id="tspan5444">learn more.</tspan><tspan
         y="568.03556"
         x="398.81827"
         sodipodi:role="line"
         id="tspan6276">apply.</tspan></text>
    <text
       sodipodi:linespacing="125%"
       id="text5446"
       y="790.1424"
       x="101.13256"
       style="font-size:13.37141705px;font-style:normal;font-variant:normal;font-weight:normal;font-stretch:normal;text-align:start;line-height:125%;writing-mode:lr-tb;text-anchor:start;fill:#000000;fill-opacity:1;stroke:none;stroke-width:1pt;stroke-linecap:butt;stroke-linejoin:miter;stroke-opacity:1;font-family:Bitstream Vera Sans"
       xml:space="preserve"><tspan
         id="tspan5450"
         y="790.1424"
         x="101.13256"
         sodipodi:role="line">Open to all female students</tspan><tspan
         id="tspan5452"
         y="806.85667"
         x="101.13256"
         sodipodi:role="line">    with programming experience</tspan></text>
    <text
       sodipodi:linespacing="125%"
       id="text5454"
       y="846.62067"
       x="139.42293"
       style="font-size:13.37141705px;font-style:normal;font-variant:normal;font-weight:normal;font-stretch:normal;text-align:start;line-height:125%;writing-mode:lr-tb;text-anchor:start;fill:#000000;fill-opacity:1;stroke:none;stroke-width:1pt;stroke-linecap:butt;stroke-linejoin:miter;stroke-opacity:1;font-family:Bitstream Vera Sans"
       xml:space="preserve"><tspan
         id="tspan5456"
         y="846.62067"
         x="139.42293"
         sodipodi:role="line">Gain experience developing </tspan><tspan
         id="tspan5458"
         y="863.33494"
         x="139.42293"
         sodipodi:role="line">     Linux desktop applications </tspan></text>
    <text
       xml:space="preserve"
       style="font-size:16.55918694px;font-style:normal;font-variant:normal;font-weight:normal;font-stretch:normal;text-align:start;line-height:125%;writing-mode:lr-tb;text-anchor:start;fill:#000000;fill-opacity:1;stroke:none;stroke-width:1pt;stroke-linecap:butt;stroke-linejoin:miter;stroke-opacity:1;font-family:Bitstream Vera Sans"
       x="230.58597"
       y="694.73199"
       id="text5506"
       sodipodi:linespacing="125%"><tspan
         sodipodi:role="line"
         x="230.58597"
         y="694.73199"
         id="tspan5510">(applications due 1 jul 2006) </tspan></text>
    <g
       transform="matrix(0.525307,0,0,0.525307,646.4103,782.2359)"
       id="g6207"
       style="fill:#000000;fill-opacity:1;fill-rule:nonzero;stroke:none;stroke-miterlimit:4;stroke-opacity:1">
      <g
         style="fill:#000000;fill-opacity:1;stroke:none;stroke-opacity:1"
         id="g6209"
         transform="translate(-10.76866,59.22765)">
        <g
           style="fill:#000000;fill-opacity:1;stroke:none;stroke-opacity:1"
           id="g6211">
          <g
             style="fill:#000000;fill-opacity:1;stroke:none;stroke-opacity:1"
             id="g6213">
            <path
               style="fill:#000000;fill-opacity:1;stroke:none;stroke-opacity:1"
               d="M 86.068,0 C 61.466,0 56.851,35.041 70.691,35.041 C 84.529,35.041 110.671,0 86.068,0 z "
               id="path6215" />
            <path
               style="fill:#000000;fill-opacity:1;stroke:none;stroke-opacity:1"
               d="M 45.217,30.699 C 52.586,31.149 60.671,2.577 46.821,4.374 C 32.976,6.171 37.845,30.249 45.217,30.699 z "
               id="path6217" />
            <path
               style="fill:#000000;fill-opacity:1;stroke:none;stroke-opacity:1"
               d="M 11.445,48.453 C 16.686,46.146 12.12,23.581 3.208,29.735 C -5.7,35.89 6.204,50.759 11.445,48.453 z "
               id="path6219" />
            <path
               style="fill:#000000;fill-opacity:1;stroke:none;stroke-opacity:1"
               d="M 26.212,36.642 C 32.451,35.37 32.793,9.778 21.667,14.369 C 10.539,18.961 19.978,37.916 26.212,36.642 L 26.212,36.642 z "
               id="path6221" />
            <path
               style="fill:#000000;fill-opacity:1;stroke:none;stroke-opacity:1"
               id="path6223"
               d="M 58.791,93.913 C 59.898,102.367 52.589,106.542 45.431,101.092 C 22.644,83.743 83.16,75.088 79.171,51.386 C 75.86,31.712 15.495,37.769 8.621,68.553 C 3.968,89.374 27.774,118.26 52.614,118.26 C 64.834,118.26 78.929,107.226 81.566,93.248 C 83.58,82.589 57.867,86.86 58.791,93.913 L 58.791,93.913 z " />
          </g>
        </g>
        <g
           style="fill:#000000;fill-opacity:1;stroke:none;stroke-opacity:1"
           id="g6225">
          <path
             style="fill:#000000;fill-opacity:1;stroke:none;stroke-opacity:1"
             d="M 17.718,132.165 L 16.228,135.022 C 15.81,134.648 15.164,134.276 14.291,133.907 C 13.418,133.538 12.668,133.352 12.041,133.352 C 10.077,133.352 8.527,134.02 7.391,135.356 C 6.254,136.693 5.686,138.483 5.686,140.726 C 5.686,142.861 6.243,144.567 7.357,145.843 C 8.471,147.119 9.987,147.758 11.906,147.758 C 13.17,147.758 14.211,147.412 15.03,146.721 L 15.03,142.789 L 12.249,142.789 L 12.249,139.758 L 18.593,139.758 L 18.593,148.716 C 17.746,149.408 16.655,149.947 15.322,150.334 C 13.989,150.721 12.661,150.914 11.341,150.914 C 8.473,150.914 6.199,149.973 4.519,148.09 C 2.839,146.207 1.999,143.721 1.999,140.631 C 1.999,137.539 2.913,135.027 4.742,133.095 C 6.57,131.162 9.031,130.196 12.124,130.196 C 14.316,130.196 16.181,130.852 17.718,132.165 L 17.718,132.165 z "
             id="path6227" />
          <path
             style="fill:#000000;fill-opacity:1;stroke:none;stroke-opacity:1"
             d="M 34.892,150.853 L 25.173,138.165 L 25.173,150.571 L 21.767,150.571 L 21.767,130.54 L 23.486,130.54 L 32.924,142.634 L 32.924,130.54 L 36.33,130.54 L 36.33,150.853 L 34.892,150.853 L 34.892,150.853 z "
             id="path6229" />
          <path
             style="fill:#000000;fill-opacity:1;stroke:none;stroke-opacity:1"
             d="M 39.487,140.392 C 39.487,137.54 40.268,135.128 41.832,133.156 C 43.395,131.183 45.484,130.197 48.1,130.197 C 50.981,130.197 53.182,131.09 54.704,132.876 C 56.226,134.662 56.987,137.168 56.987,140.393 C 56.987,143.62 56.192,146.179 54.602,148.075 C 53.01,149.97 50.752,150.917 47.827,150.917 C 45.139,150.917 43.077,149.979 41.641,148.103 C 40.205,146.227 39.488,143.656 39.488,140.394 L 39.487,140.392 z M 43.175,140.392 C 43.175,142.734 43.571,144.547 44.365,145.831 C 45.158,147.116 46.312,147.759 47.826,147.759 C 49.605,147.759 50.962,147.13 51.896,145.872 C 52.832,144.615 53.298,142.788 53.298,140.392 C 53.298,135.7 51.566,133.353 48.099,133.353 C 46.512,133.353 45.294,133.989 44.446,135.259 C 43.597,136.53 43.174,138.241 43.174,140.392 L 43.175,140.392 z "
             id="path6231" />
          <path
             style="fill:#000000;fill-opacity:1;stroke:none;stroke-opacity:1"
             d="M 78.831,150.571 L 75.393,150.571 L 73.299,139.79 L 69.268,150.853 L 67.987,150.853 L 63.94,139.79 L 61.799,150.571 L 58.361,150.571 L 62.392,130.54 L 64.267,130.54 L 68.626,144.04 L 72.86,130.54 L 74.735,130.54 L 78.829,150.571 L 78.831,150.571 z "
             id="path6233" />
          <path
             style="fill:#000000;fill-opacity:1;stroke:none;stroke-opacity:1"
             d="M 84.569,133.696 L 84.569,138.384 L 91.007,138.384 L 91.007,141.415 L 84.569,141.415 L 84.569,147.415 L 93.632,147.415 L 93.632,150.571 L 81.006,150.571 L 81.006,130.54 L 93.631,130.54 L 93.631,133.696 L 84.568,133.696 L 84.569,133.696 z "
             id="path6235" />
        </g>
      </g>
    </g>
    <text
       xml:space="preserve"
       style="font-size:13.37141705px;font-style:normal;font-variant:normal;font-weight:normal;font-stretch:normal;text-align:start;line-height:125%;writing-mode:lr-tb;text-anchor:start;fill:#000000;fill-opacity:1;stroke:none;stroke-width:1pt;stroke-linecap:butt;stroke-linejoin:miter;stroke-opacity:1;font-family:Bitstream Vera Sans"
       x="176.19247"
       y="901.77502"
       id="text6278"
       sodipodi:linespacing="125%"><tspan
         sodipodi:role="line"
         x="176.19247"
         y="901.77502"
         id="tspan6282">Collaborate with open source </tspan><tspan
         sodipodi:role="line"
         x="176.19247"
         y="918.4893"
         id="tspan6286">       developers </tspan></text>
    <path
       style="fill:none;fill-opacity:0.75;fill-rule:evenodd;stroke:none;stroke-width:1px;stroke-linecap:butt;stroke-linejoin:miter;stroke-opacity:1"
       d="M 138,336 C 138,336 234.10445,260.42507 346,228 C 462.82258,194.14718 532.9649,190.62939 648,202"
       id="path6472"
       sodipodi:nodetypes="csc" />
    <path
       style="fill:none;fill-opacity:0.75;fill-rule:evenodd;stroke:#000000;stroke-width:1px;stroke-linecap:butt;stroke-linejoin:miter;stroke-opacity:1"
       d="M 68,402 C 68,402 116.70893,297.14452 346,228 C 468.7618,190.98022 578.9649,188.62939 706,216"
       id="path6476"
       sodipodi:nodetypes="csc" />
    <text
       xml:space="preserve"
       style="font-size:28.63071442px;font-style:normal;font-variant:normal;font-weight:bold;font-stretch:normal;text-align:start;line-height:100%;writing-mode:lr-tb;text-anchor:start;fill:#ffffff;fill-opacity:1;stroke:none;stroke-width:1pt;stroke-linecap:butt;stroke-linejoin:miter;stroke-opacity:1;font-family:Bitstream Vera Sans"
       id="text6482"
       sodipodi:linespacing="100%"
       transform="matrix(0.995407,3.266372e-2,-3.759721e-2,0.943087,54.1045,-4.903835)"><textPath
         xlink:href="#path6476"
         id="textPath6492"
         style="font-size:32px;font-style:normal;font-variant:normal;font-weight:bold;font-stretch:normal;text-align:start;line-height:100%;writing-mode:lr-tb;text-anchor:start;font-family:Bitstream Vera Sans">Women's Summer Outreach Program</textPath></text>
    <path
       style="fill:none;fill-opacity:0.75;fill-rule:evenodd;stroke:#000000;stroke-width:1px;stroke-linecap:butt;stroke-linejoin:miter;stroke-opacity:1"
       d="M 86.354222,299.83513 C 86.354222,299.83513 197.37812,177.01908 386.58656,167.84825"
       id="path6599"
       sodipodi:nodetypes="cs" />
    <text
       xml:space="preserve"
       style="font-size:78.10716248px;font-style:normal;font-variant:normal;font-weight:bold;font-stretch:normal;text-align:start;line-height:125%;writing-mode:lr-tb;text-anchor:start;fill:#ffffff;fill-opacity:1;stroke:none;stroke-width:1pt;stroke-linecap:butt;stroke-linejoin:miter;stroke-opacity:1;font-family:Trebuchet MS"
       id="text6601"
       sodipodi:linespacing="125%"
       transform="matrix(0.911977,3.065431e-3,-4.211431e-2,0.91378,67.65498,33.63944)"><textPath
         xlink:href="#path6599"
         id="textPath6605"><tspan
   id="tspan6603">GNOME</tspan></textPath></text>
    <text
       xml:space="preserve"
       style="font-size:22.23440361px;font-style:normal;font-variant:normal;font-weight:bold;font-stretch:normal;text-align:start;line-height:125%;writing-mode:lr-tb;text-anchor:start;fill:#000000;fill-opacity:1;stroke:none;stroke-width:1pt;stroke-linecap:butt;stroke-linejoin:miter;stroke-opacity:1;font-family:Bitstream Vera Sans"
       x="64.184906"
       y="695.87115"
       id="text1389"
       sodipodi:linespacing="125%"><tspan
         sodipodi:role="line"
         id="tspan1391"
         x="64.184906"
         y="695.87115">jul-aug 2006</tspan></text>
  </g>
</svg>
