<?xml version="1.0" encoding="UTF-8" standalone="no"?>
<!-- Created with Inkscape (http://www.inkscape.org/) -->
<svg
   xmlns:dc="http://purl.org/dc/elements/1.1/"
   xmlns:cc="http://web.resource.org/cc/"
   xmlns:rdf="http://www.w3.org/1999/02/22-rdf-syntax-ns#"
   xmlns:svg="http://www.w3.org/2000/svg"
   xmlns="http://www.w3.org/2000/svg"
   xmlns:xlink="http://www.w3.org/1999/xlink"
   xmlns:sodipodi="http://sodipodi.sourceforge.net/DTD/sodipodi-0.dtd"
   xmlns:inkscape="http://www.inkscape.org/namespaces/inkscape"
   width="500"
   height="100"
   id="svg2446"
   sodipodi:version="0.32"
   inkscape:version="0.45"
   version="1.0"
   sodipodi:docbase="/home/mattions/svn/tracker-website/images"
   sodipodi:docname="tracker_logo.svg"
   inkscape:output_extension="org.inkscape.output.svg.inkscape"
   inkscape:export-filename="/home/mattions/svn/tracker-website/images/tracker_logo.png"
   inkscape:export-xdpi="90"
   inkscape:export-ydpi="90"
   sodipodi:modified="TRUE">
  <defs
     id="defs2448">
    <linearGradient
       id="linearGradient4467">
      <stop
         id="stop4469"
         offset="0"
         style="stop-color:#ffffff;stop-opacity:1;" />
      <stop
         id="stop4471"
         offset="1.0000000"
         style="stop-color:#ffffff;stop-opacity:0.24761905;" />
    </linearGradient>
    <radialGradient
       inkscape:collect="always"
       xlink:href="#linearGradient4467"
       id="radialGradient3049"
       gradientUnits="userSpaceOnUse"
       gradientTransform="matrix(1.2090725,0,0,1.0501334,-13.464215,-7.9586902)"
       cx="15.414371"
       cy="13.078408"
       fx="15.414371"
       fy="13.078408"
       r="6.6562500" />
    <linearGradient
       id="linearGradient4454">
      <stop
         id="stop4456"
         offset="0.0000000"
         style="stop-color:#ce5c00;stop-opacity:0.20784314" />
      <stop
         id="stop4458"
         offset="1.0000000"
         style="stop-color:#f57900;stop-opacity:0.67619050" />
    </linearGradient>
    <radialGradient
       inkscape:collect="always"
       xlink:href="#linearGradient4454"
       id="radialGradient3044"
       gradientUnits="userSpaceOnUse"
       cx="18.240929"
       cy="21.817987"
       fx="18.240929"
       fy="21.817987"
       r="8.3085051"
       gradientTransform="matrix(0.46629,0,0,0.46629,0.9854561,3.1789302)" />
    <linearGradient
       id="linearGradient4487"
       inkscape:collect="always">
      <stop
         id="stop4489"
         offset="0"
         style="stop-color:#ffffff;stop-opacity:1;" />
      <stop
         id="stop4491"
         offset="1"
         style="stop-color:#ffffff;stop-opacity:0;" />
    </linearGradient>
    <radialGradient
       inkscape:collect="always"
       xlink:href="#linearGradient4487"
       id="radialGradient3042"
       gradientUnits="userSpaceOnUse"
       gradientTransform="matrix(0.46629,0,0,0.1109621,-13.526452,-0.1556376)"
       cx="24.130018"
       cy="37.967922"
       fx="24.130018"
       fy="37.967922"
       r="16.528622" />
    <linearGradient
       id="linearGradient2366">
      <stop
         style="stop-color:#ffffff;stop-opacity:1;"
         offset="0"
         id="stop2368" />
      <stop
         id="stop2374"
         offset="0.50000000"
         style="stop-color:#ffffff;stop-opacity:0.21904762;" />
      <stop
         style="stop-color:#ffffff;stop-opacity:1.0000000;"
         offset="1.0000000"
         id="stop2370" />
    </linearGradient>
    <linearGradient
       inkscape:collect="always"
       xlink:href="#linearGradient2366"
       id="linearGradient3040"
       gradientUnits="userSpaceOnUse"
       x1="18.292673"
       y1="13.602121"
       x2="17.500893"
       y2="25.743469"
       gradientTransform="matrix(0.46629,0,0,0.46629,-9.2777701e-2,2.6599415)" />
    <linearGradient
       id="linearGradient4440">
      <stop
         id="stop4442"
         offset="0"
         style="stop-color:#7d7d7d;stop-opacity:1;" />
      <stop
         style="stop-color:#b1b1b1;stop-opacity:1.0000000;"
         offset="0.50000000"
         id="stop4448" />
      <stop
         id="stop4444"
         offset="1.0000000"
         style="stop-color:#686868;stop-opacity:1.0000000;" />
    </linearGradient>
    <linearGradient
       inkscape:collect="always"
       xlink:href="#linearGradient4440"
       id="linearGradient3056"
       gradientUnits="userSpaceOnUse"
       gradientTransform="matrix(0.6223072,0,0,0.6021164,-5.0309377,-2.6055247)"
       x1="30.656250"
       y1="34.000000"
       x2="33.218750"
       y2="31.062500" />
    <linearGradient
       id="linearGradient2846">
      <stop
         style="stop-color:#8a8a8a;stop-opacity:1.0000000;"
         offset="0.0000000"
         id="stop2848" />
      <stop
         style="stop-color:#484848;stop-opacity:1.0000000;"
         offset="1.0000000"
         id="stop2850" />
    </linearGradient>
    <linearGradient
       inkscape:collect="always"
       xlink:href="#linearGradient2846"
       id="linearGradient3060"
       gradientUnits="userSpaceOnUse"
       x1="27.366341"
       y1="26.580296"
       x2="31.335964"
       y2="30.557772"
       gradientTransform="matrix(0.46629,0,0,0.46629,-1.7791063,0.8733049)" />
    <linearGradient
       id="linearGradient4477"
       inkscape:collect="always">
      <stop
         id="stop4479"
         offset="0"
         style="stop-color:#000000;stop-opacity:1;" />
      <stop
         id="stop4481"
         offset="1"
         style="stop-color:#000000;stop-opacity:0;" />
    </linearGradient>
    <radialGradient
       inkscape:collect="always"
       xlink:href="#linearGradient4477"
       id="radialGradient3034"
       gradientUnits="userSpaceOnUse"
       gradientTransform="matrix(0.46629,0,0,0.1109621,2.7056252,19.735255)"
       cx="24.130018"
       cy="37.967922"
       fx="24.130018"
       fy="37.967922"
       r="16.528622" />
  </defs>
  <sodipodi:namedview
     id="base"
     pagecolor="#ffffff"
     bordercolor="#666666"
     borderopacity="1.0"
     inkscape:pageopacity="0.0"
     inkscape:pageshadow="2"
     inkscape:zoom="0.98994949"
     inkscape:cx="375"
     inkscape:cy="62.857143"
     inkscape:document-units="px"
     inkscape:current-layer="layer1"
     height="100px"
     width="500px"
     inkscape:window-width="872"
     inkscape:window-height="626"
     inkscape:window-x="5"
     inkscape:window-y="77" />
  <metadata
     id="metadata2451">
    <rdf:RDF>
      <cc:Work
         rdf:about="">
        <dc:format>image/svg+xml</dc:format>
        <dc:type
           rdf:resource="http://purl.org/dc/dcmitype/StillImage" />
      </cc:Work>
    </rdf:RDF>
  </metadata>
  <g
     inkscape:label="Livello 1"
     inkscape:groupmode="layer"
     id="layer1">
    <g
       id="g2402"
       transform="matrix(2.1445885,0,0,2.1445885,3.9800609,-1.0164329)">
      <path
         sodipodi:type="arc"
         style="opacity:0.17112301;color:#000000;fill:url(#radialGradient3034);fill-opacity:1;fill-rule:evenodd;stroke:none;stroke-width:1;stroke-linecap:round;stroke-linejoin:miter;marker:none;marker-start:none;marker-mid:none;marker-end:none;stroke-miterlimit:10;stroke-dasharray:none;stroke-dashoffset:0;stroke-opacity:1;visibility:visible;display:inline;overflow:visible"
         id="path4475"
         sodipodi:cx="24.130018"
         sodipodi:cy="37.967922"
         sodipodi:rx="16.528622"
         sodipodi:ry="3.9332814"
         d="M 40.65864 37.967922 A 16.528622 3.9332814 0 1 1  7.6013966,37.967922 A 16.528622 3.9332814 0 1 1  40.65864 37.967922 z"
         transform="matrix(1.446431,0,0,1.51999,-10.80992,-16.89523)" />
      <path
         sodipodi:nodetypes="csscccscccscczzzz"
         id="path2844"
         d="M 18.792182,4.0000008 C 10.653052,4.0000008 4.0473812,10.605672 4.0473812,18.744802 C 4.0473812,26.883932 10.653052,33.489604 18.792182,33.489604 C 22.271737,33.489604 25.343183,32.105211 27.865905,30.086957 C 27.660528,31.093838 27.78787,32.122325 28.622049,32.846882 L 39.586133,42.374292 C 40.819549,43.445621 42.673595,43.305252 43.744923,42.071835 C 44.816251,40.838417 44.675882,38.984373 43.442466,37.913045 L 32.478382,28.385634 C 31.806855,27.802355 30.985504,27.629665 30.172144,27.742912 C 32.158844,25.23049 33.536983,22.194109 33.536983,18.744802 C 33.536983,10.605672 26.931312,4.0000008 18.792182,4.0000008 z M 18.716567,5.2261841 C 26.356026,5.2261841 32.008342,10.015135 32.008342,18.517959 C 32.008342,27.193072 26.191652,31.809734 18.716567,31.809734 C 11.413618,31.809734 5.4247936,26.331642 5.4247936,18.517959 C 5.4247936,10.533852 11.249432,5.226184 18.716567,5.2261841 z "
         style="color:#000000;fill:#dcdcdc;fill-opacity:1;fill-rule:evenodd;stroke:url(#linearGradient3060);stroke-width:0.93258035;stroke-linecap:round;stroke-linejoin:miter;marker:none;marker-start:none;marker-mid:none;marker-end:none;stroke-miterlimit:10;stroke-dasharray:none;stroke-dashoffset:0;stroke-opacity:1;visibility:visible;display:inline;overflow:visible" />
      <path
         style="color:#000000;fill:#dcdcdc;fill-opacity:1;fill-rule:evenodd;stroke:none;stroke-width:1.00000036;stroke-linecap:round;stroke-linejoin:miter;marker:none;marker-start:none;marker-mid:none;marker-end:none;stroke-miterlimit:10;stroke-dasharray:none;stroke-dashoffset:0;stroke-opacity:1;visibility:visible;display:inline;overflow:visible"
         d="M 18.767518,3.9368011 C 10.602078,3.9368011 3.9750538,10.563825 3.9750538,18.729265 C 3.9750538,26.894705 10.602078,33.521729 18.767518,33.521729 C 22.258321,33.521729 25.339695,32.132862 27.870573,30.108084 C 27.664532,31.11822 27.792285,32.150031 28.62916,32.87693 L 39.628686,42.435137 C 40.866089,43.509929 42.726128,43.369107 43.800919,42.131702 C 44.87571,40.894298 44.734887,39.03426 43.497484,37.959469 L 32.497959,28.401261 C 31.824261,27.816097 31.000255,27.642848 30.184266,27.756462 C 32.177388,25.235918 33.559982,22.189722 33.559982,18.729265 C 33.559982,10.563825 26.932958,3.9368011 18.767518,3.9368011 z M 18.691659,7.1228703 C 24.972767,7.1228705 30.070477,12.220581 30.070477,18.501689 C 30.070477,24.782797 24.972767,29.880507 18.691659,29.880507 C 12.410551,29.880507 7.3128406,24.782797 7.3128406,18.501689 C 7.3128408,12.220581 12.410551,7.1228703 18.691659,7.1228703 z "
         id="path4430" />
      <path
         style="color:#000000;fill:url(#linearGradient3056);fill-opacity:1;fill-rule:evenodd;stroke:none;stroke-width:1;stroke-linecap:round;stroke-linejoin:miter;marker:none;marker-start:none;marker-mid:none;marker-end:none;stroke-miterlimit:10;stroke-dasharray:none;stroke-dashoffset:0;stroke-opacity:1;visibility:visible;display:inline;overflow:visible"
         d="M 39.671617,42.434136 C 39.192945,40.160949 41.068947,37.622714 43.25567,37.645761 C 43.25567,37.645761 32.495303,28.38765 32.495303,28.38765 C 29.550512,28.330944 28.225801,30.660266 28.718489,32.987572 L 39.671617,42.434136 z "
         id="path4438"
         sodipodi:nodetypes="ccccc" />
      <path
         sodipodi:type="arc"
         style="color:#000000;fill:none;fill-opacity:1;fill-rule:evenodd;stroke:url(#linearGradient3040);stroke-width:0.37430656;stroke-linecap:round;stroke-linejoin:miter;marker:none;marker-start:none;marker-mid:none;marker-end:none;stroke-miterlimit:10;stroke-dasharray:none;stroke-dashoffset:0;stroke-opacity:1;visibility:visible;display:inline;overflow:visible"
         id="path4450"
         sodipodi:cx="17.500893"
         sodipodi:cy="18.920233"
         sodipodi:rx="11.048544"
         sodipodi:ry="11.048544"
         d="M 28.549437 18.920233 A 11.048544 11.048544 0 1 1  6.4523487,18.920233 A 11.048544 11.048544 0 1 1  28.549437 18.920233 z"
         transform="matrix(1.245743,0,0,1.245743,-3.260733,-5.320587)" />
      <path
         transform="matrix(0.497764,0,0,0.609621,9.138139,16.47574)"
         d="M 40.65864 37.967922 A 16.528622 3.9332814 0 1 1  7.6013966,37.967922 A 16.528622 3.9332814 0 1 1  40.65864 37.967922 z"
         sodipodi:ry="3.9332814"
         sodipodi:rx="16.528622"
         sodipodi:cy="37.967922"
         sodipodi:cx="24.130018"
         id="path4485"
         style="color:#000000;fill:url(#radialGradient3042);fill-opacity:1;fill-rule:evenodd;stroke:none;stroke-width:1;stroke-linecap:round;stroke-linejoin:miter;marker:none;marker-start:none;marker-mid:none;marker-end:none;stroke-miterlimit:10;stroke-dasharray:none;stroke-dashoffset:0;stroke-opacity:1;visibility:visible;display:inline;overflow:visible"
         sodipodi:type="arc" />
      <rect
         style="opacity:0.43315507;color:#000000;fill:none;fill-opacity:1;fill-rule:evenodd;stroke:#ffffff;stroke-width:0.46630448;stroke-linecap:round;stroke-linejoin:miter;marker:none;marker-start:none;marker-mid:none;marker-end:none;stroke-miterlimit:10;stroke-dasharray:none;stroke-dashoffset:0;stroke-opacity:1;visibility:visible;display:inline;overflow:visible"
         id="rect4495"
         width="19.048445"
         height="4.4404783"
         x="41.054398"
         y="0.67746985"
         rx="0.99630374"
         ry="0.88032573"
         transform="matrix(0.752986,0.658037,-0.648902,0.760872,0,0)" />
      <path
         sodipodi:type="arc"
         style="color:#000000;fill:url(#radialGradient3044);fill-opacity:1;fill-rule:evenodd;stroke:#ce5c00;stroke-width:0.33339447;stroke-linecap:round;stroke-linejoin:miter;marker:none;marker-start:none;marker-mid:none;marker-end:none;stroke-miterlimit:10;stroke-dashoffset:0;stroke-opacity:1;visibility:visible"
         id="path4452"
         sodipodi:cx="17.589281"
         sodipodi:cy="18.478292"
         sodipodi:rx="8.3085051"
         sodipodi:ry="8.3085051"
         d="M 25.897786 18.478292 A 8.3085051 8.3085051 0 1 1  9.280776,18.478292 A 8.3085051 8.3085051 0 1 1  25.897786 18.478292 z"
         transform="matrix(1.398614,0,0,1.398614,-6.059725,-7.442512)" />
      <path
         sodipodi:nodetypes="css"
         id="path2116"
         d="M 27.166932,14.788887 C 25.733227,13.44292 20.883226,16.995107 23.033784,19.014059 C 25.184342,21.033011 28.600636,16.134854 27.166932,14.788887 z "
         style="fill:#272c2e;fill-opacity:1;fill-rule:evenodd;stroke:#000000;stroke-width:0.45886213px;stroke-linecap:butt;stroke-linejoin:miter;stroke-opacity:1" />
      <path
         sodipodi:nodetypes="css"
         id="path2118"
         d="M 23.925869,25.433801 C 24.573186,26.022493 28.163554,24.011307 27.442852,22.036782 C 26.722156,20.062255 21.98392,23.667724 23.925869,25.433801 z "
         style="fill:#272c2e;fill-opacity:1;fill-rule:evenodd;stroke:#000000;stroke-width:0.43087649px;stroke-linecap:butt;stroke-linejoin:miter;stroke-opacity:1" />
      <path
         sodipodi:nodetypes="css"
         id="path3032"
         d="M 21.003845,9.7167316 C 22.487885,11.022282 20.43569,17.078901 18.209632,15.120575 C 15.983573,13.162251 19.519806,8.4111821 21.003845,9.7167316 z "
         style="fill:#272c2e;fill-opacity:1;fill-rule:evenodd;stroke:#000000;stroke-width:0.45978454px;stroke-linecap:butt;stroke-linejoin:miter;stroke-opacity:1" />
      <path
         sodipodi:nodetypes="css"
         id="path3034"
         d="M 11.656901,15.199887 C 11.023082,14.593518 12.003308,10.096465 13.832909,10.488128 C 15.66251,10.879786 13.558353,17.018991 11.656901,15.199887 z "
         style="fill:#272c2e;fill-opacity:1;fill-rule:evenodd;stroke:#000000;stroke-width:0.43271396px;stroke-linecap:butt;stroke-linejoin:miter;stroke-opacity:1" />
      <path
         sodipodi:nodetypes="csscss"
         id="path2097"
         d="M 10.974025,18.60242 C 8.430812,22.619158 17.228659,29.979463 20.571676,26.631844 C 21.35606,25.846381 20.807635,25.293693 20.607132,23.247952 C 20.388463,21.016882 21.240785,20.040808 18.58725,19.186273 C 17.241764,16.695215 16.389441,17.671288 14.208696,17.895002 C 12.13379,18.10786 11.570746,17.659961 10.974025,18.60242 z "
         style="fill:#272c2e;fill-opacity:1;fill-rule:evenodd;stroke:#000000;stroke-width:0.48406148px;stroke-linecap:butt;stroke-linejoin:miter;stroke-opacity:1" />
      <path
         style="opacity:0.60112359;color:#000000;fill:url(#radialGradient3049);fill-opacity:1;fill-rule:evenodd;stroke:none;stroke-width:1;stroke-linecap:round;stroke-linejoin:miter;marker:none;marker-start:none;marker-mid:none;marker-end:none;stroke-miterlimit:10;stroke-dasharray:none;stroke-dashoffset:0;stroke-opacity:1;visibility:visible;display:inline;overflow:visible"
         d="M 18.321528,8.2531398 C 13.113938,8.2531398 8.8969811,12.470097 8.8969811,17.677687 C 8.8969811,19.181662 9.3172883,20.56546 9.944153,21.82759 C 11.196533,22.289203 12.52691,22.603273 13.93892,22.603273 C 20.109875,22.603273 25.038202,17.741636 25.419026,11.666144 C 23.688062,9.6206128 21.208987,8.2531398 18.321528,8.2531398 z "
         id="path4462" />
    </g>
    <g
       id="g2812"
       transform="translate(0,13.100366)">
      <text
         sodipodi:linespacing="125%"
         id="text2499"
         y="26.258863"
         x="95.964493"
         style="font-size:22px;font-style:normal;font-variant:normal;font-weight:normal;font-stretch:normal;text-align:start;line-height:125%;writing-mode:lr-tb;text-anchor:start;fill:#000000;fill-opacity:1;stroke:none;stroke-width:1pt;stroke-linecap:butt;stroke-linejoin:miter;stroke-opacity:1;font-family:Bitstream Vera Sans"
         xml:space="preserve"><tspan
           y="26.258863"
           x="95.964493"
           id="tspan2501"
           sodipodi:role="line">Meta</tspan></text>
      <text
         sodipodi:linespacing="125%"
         id="text2503"
         y="68.685272"
         x="149.50258"
         style="font-size:56px;font-style:normal;font-variant:normal;font-weight:bold;font-stretch:normal;text-align:start;line-height:125%;writing-mode:lr-tb;text-anchor:start;fill:#000000;fill-opacity:1;stroke:none;stroke-width:1pt;stroke-linecap:butt;stroke-linejoin:miter;stroke-opacity:1;font-family:Bitstream Vera Sans"
         xml:space="preserve"><tspan
           y="68.685272"
           x="149.50258"
           id="tspan2505"
           sodipodi:role="line">Tracker</tspan></text>
    </g>
    <g
       id="g862"
       style="fill:#ffffff;stroke:#3b80ae;stroke-width:2.45880008"
       transform="translate(408.86637,13.662731)">
      <g
         id="g864">
        <path
           id="path866"
           style="stroke:#bababa"
           d="M 85.277,40.796 C 87.335,48.68 82.61,56.738 74.726,58.795 L 27.143,71.21 C 19.259,73.267 11.2,68.543 9.143,60.658 L 1.695,32.108 C -0.362,24.224 4.362,16.166 12.246,14.109 L 59.83,1.695 C 67.714,-0.362 75.772,4.362 77.829,12.246 L 85.278,40.796 L 85.277,40.796 z " />
        <path
           id="path868"
           style="fill:#3b80ae;stroke:none"
           d="M 80.444,39.778 C 82.193,47.632 78.628,53.399 70.94,55.225 L 28.704,66.245 C 21.135,68.641 14.615,65.064 12.866,57.409 L 6.53,33.127 C 4.781,24.982 7.239,20.238 16.033,17.68 L 58.27,6.661 C 66.414,4.835 72.359,8.024 74.108,15.496 L 80.444,39.778 L 80.444,39.778 z " />
      </g>
      <path
         id="path871"
         style="opacity:0.5;fill:none;stroke:#ffffff"
         d="M 45.542,51.793 L 24.104,31.102 L 62.204,26.709 L 45.542,51.793 z " />
      <path
         id="path873"
         d="M 72.325,28.769 C 72.73,30.319 71.8,31.905 70.25,32.31 L 57.919,35.527 C 56.368,35.931 54.782,35.002 54.377,33.451 L 52.082,24.65 C 51.677,23.099 52.606,21.513 54.158,21.108 L 66.488,17.891 C 68.039,17.486 69.625,18.416 70.03,19.967 L 72.325,28.768 L 72.325,28.769 z " />
      <path
         id="path875"
         d="M 36.51,33.625 C 37.006,35.525 35.865,37.469 33.965,37.965 L 18.853,41.908 C 16.952,42.404 15.008,41.264 14.513,39.364 L 11.699,28.578 C 11.203,26.677 12.343,24.734 14.243,24.238 L 29.356,20.296 C 31.257,19.8 33.201,20.939 33.696,22.84 L 36.51,33.626 L 36.51,33.625 z " />
      <path
         id="path877"
         d="M 52.493,53.208 C 52.771,54.273 52.133,55.362 51.068,55.64 L 42.6,57.848 C 41.536,58.125 40.447,57.488 40.169,56.422 L 38.592,50.379 C 38.315,49.315 38.952,48.226 40.017,47.947 L 48.485,45.738 C 49.549,45.461 50.639,46.099 50.916,47.164 L 52.493,53.207 L 52.493,53.208 z " />
    </g>
  </g>
</svg>
