<?xml version="1.0" encoding="UTF-8" standalone="no"?>
<!DOCTYPE svg PUBLIC "-//W3C//DTD SVG 20010904//EN"
"http://www.w3.org/TR/2001/REC-SVG-20010904/DTD/svg10.dtd"
[
 <!ATTLIST svg
  xmlns:xlink CDATA #FIXED "http://www.w3.org/1999/xlink">
]>
<!-- Created with Sodipodi ("http://www.sodipodi.com/") -->
<svg
   id="svg548"
   sodipodi:version="0.32"
   xmlns="http://www.w3.org/2000/svg"
   xmlns:sodipodi="http://sodipodi.sourceforge.net/DTD/sodipodi-0.dtd"
   xmlns:xlink="http://www.w3.org/1999/xlink"
   width="210mm"
   height="297mm"
   sodipodi:docbase="/home/solarion"
   sodipodi:docname="/home/solarion/up-active">
  <defs
     id="defs550" />
  <sodipodi:namedview
     id="base" />
  <g
     id="g553"
     transform="translate(-116.5911,122.6740)"
     style="fill:#660c0c;fill-opacity:1;">
    <rect
       style="font-size:12;fill:#660c0c;fill-rule:evenodd;stroke-width:1pt;fill-opacity:1;"
       id="rect551"
       width="707.657776"
       height="707.657776"
       x="139.909424"
       y="81.1069183" />
    <path
       style="fill:#660c0c;fill-rule:evenodd;stroke:black;stroke-opacity:1;stroke-width:1pt;stroke-linejoin:miter;stroke-linecap:butt;fill-opacity:1;"
       d="M 151.062 778.626 L 151.062 90.2314 L 838.443 90.2314 L 840.47 776.599 L 151.062 778.626 z "
       id="path552"
       transform="translate(-2.027702,0.507080)" />
  </g>
  <path
     style="font-size:12;fill:#e64c4c;fill-rule:evenodd;stroke:#f34c4c;stroke-width:1pt;fill-opacity:1;stroke-opacity:0.708609;"
     d="M 459.267 229.934 C 405.196 74.548 368.361 75.2928 312.262 229.127 C 312.262 229.261 312.262 229.396 312.262 229.53 C 242.645 420.335 173.028 611.139 103.411 801.944 C 86.5136 801.944 69.6163 801.945 52.7189 801.945 C 126.053 600.529 199.388 399.114 272.722 197.698 C 336.763 15.5454 436.288 11.8281 498.3 198.712 C 571.803 399.79 645.307 600.867 718.81 801.945 C 701.913 801.945 685.015 801.944 668.118 801.944 C 598.501 611.274 528.884 420.604 459.267 229.934 z "
     id="path590"
     sodipodi:nodetypes="cccccccccc"
     transform="matrix(1.000000,0.000000,0.000000,0.897541,-8.617233,170.8776)" />
</svg>
